<svg width="220" height="288" viewBox="0 0 220 288" fill="none" xmlns="http://www.w3.org/2000/svg">
<path d="M109.915 0.5C116.818 0.5 122.415 6.0965 122.415 13V26.3855C164.82 32.449 197.418 68.9177 197.418 113V165.5L213.248 184.495C226.818 200.778 215.238 225.5 194.043 225.5H25.7948C4.59884 225.5 -6.97999 200.778 6.58934 184.495L22.4188 165.5V113C22.4188 68.9205 55.013 32.454 97.415 26.3867V13C97.415 6.0965 103.012 0.5 109.915 0.5Z" fill="#E5E5E5"/>
<path d="M65.8006 269.695C60.2742 264.168 55.8359 257.657 52.7124 250.5H167.277C164.153 257.657 159.715 264.168 154.188 269.695C148.385 275.498 141.495 280.102 133.912 283.242C126.33 286.383 118.202 288 109.995 288C101.787 288 93.6601 286.383 86.0767 283.242C78.4934 280.102 71.6041 275.498 65.8006 269.695Z" fill="#E5E5E5"/>
</svg>
