<svg width="766" height="752" viewBox="0 0 766 752" fill="none" xmlns="http://www.w3.org/2000/svg">
<path d="M32 159.667V477.667C32 511.438 45.4154 543.825 69.2951 567.705C93.1747 591.585 125.562 605 159.333 605H223V700.334L415.333 605H606.333C640.104 605 672.492 591.585 696.372 567.705C720.251 543.825 733.667 511.438 733.667 477.667V159.667C733.667 125.896 720.251 93.5082 696.372 69.6286C672.492 45.7489 640.104 32.3335 606.333 32.3335H159.333C125.562 32.3335 93.1747 45.7489 69.2951 69.6286C45.4154 93.5082 32 125.896 32 159.667Z" stroke="#E5E5E5" stroke-width="63.6667" stroke-miterlimit="10"/>
</svg>
