<svg width="700" height="168" viewBox="0 0 700 168" fill="none" xmlns="http://www.w3.org/2000/svg">
<path d="M83.3333 0.666504C129.357 0.666504 166.667 37.9765 166.667 83.9998C166.667 130.023 129.357 167.333 83.3333 167.333C37.3097 167.333 0 130.023 0 83.9998C0 37.9765 37.3097 0.666504 83.3333 0.666504Z" fill="#E5E5E5"/>
<path d="M350 0.666504C396.023 0.666504 433.333 37.9765 433.333 83.9998C433.333 130.023 396.023 167.333 350 167.333C303.977 167.333 266.667 130.023 266.667 83.9998C266.667 37.9765 303.977 0.666504 350 0.666504Z" fill="#E5E5E5"/>
<path d="M700 83.9998C700 37.9765 662.69 0.666504 616.667 0.666504C570.643 0.666504 533.333 37.9765 533.333 83.9998C533.333 130.023 570.643 167.333 616.667 167.333C662.69 167.333 700 130.023 700 83.9998Z" fill="#E5E5E5"/>
</svg>
