<svg width="298" height="298" viewBox="0 0 298 298" fill="none" xmlns="http://www.w3.org/2000/svg">
<path d="M198.667 173.833C232.954 173.833 260.75 201.629 260.75 235.917V248.333C260.75 262.049 249.632 273.167 235.917 273.167H62.0833C48.3683 273.167 37.25 262.049 37.25 248.333V235.917C37.25 201.629 65.0457 173.833 99.3333 173.833H198.667ZM265.892 112.76C270.742 107.911 278.603 107.911 283.453 112.76C287.928 117.236 288.273 124.279 284.485 129.151L283.453 130.321L248.332 165.44C243.856 169.916 236.813 170.26 231.942 166.473L230.772 165.44L213.213 147.88C208.364 143.03 208.364 135.169 213.213 130.321C217.689 125.844 224.732 125.499 229.603 129.287L230.772 130.321L239.552 139.1L265.892 112.76ZM149 24.8335C183.287 24.8335 211.083 52.6292 211.083 86.9168C211.083 121.204 183.287 149 149 149C114.712 149 86.9167 121.204 86.9167 86.9168C86.9167 52.6292 114.712 24.8335 149 24.8335Z" fill="#6EE7B7"/>
</svg>
