<svg width="800" height="800" viewBox="0 0 800 800" fill="none" xmlns="http://www.w3.org/2000/svg">
<path d="M469.428 402.498C428.889 445.161 374.706 471.053 315.362 471.053C256.02 471.053 201.837 445.161 161.297 402.498C90.0203 447.401 39.6937 522.526 28.3406 609.898C25.7484 629.851 41.2953 647.565 61.4671 647.565H414.352C414.352 564.173 464.369 492.25 535.973 460.2C516.894 437.757 494.456 418.265 469.428 402.498Z" fill="#E5E5E5"/>
<path d="M315.356 418.337C412.204 418.337 490.714 324.689 490.714 209.169C490.714 93.648 412.204 0 315.356 0C218.509 0 139.999 93.648 139.999 209.169C139.999 324.689 218.509 418.337 315.356 418.337Z" fill="#E5E5E5"/>
<path d="M619.509 495.133C535.456 495.133 467.075 563.514 467.075 647.567C467.075 731.62 535.458 800 619.509 800C703.559 800 771.942 731.619 771.942 647.566C771.942 563.512 703.561 495.133 619.509 495.133ZM679.998 673.93H645.872V708.056C645.872 722.616 634.069 734.419 619.509 734.419C604.95 734.419 593.147 722.616 593.147 708.056V673.93H559.019C544.459 673.93 532.656 662.127 532.656 647.567C532.656 633.006 544.459 621.205 559.019 621.205H593.147V587.078C593.147 572.519 604.95 560.716 619.509 560.716C634.069 560.716 645.872 572.519 645.872 587.078V621.205H679.998C694.558 621.205 706.361 633.008 706.361 647.567C706.362 662.127 694.559 673.93 679.998 673.93Z" fill="#E5E5E5"/>
</svg>
