<svg width="641" height="456" viewBox="0 0 641 456" fill="none" xmlns="http://www.w3.org/2000/svg">
<path d="M523.65 346.75C556.475 364.725 575.225 396.75 572.875 428.775C571.3 448.3 570.525 449.1 545.525 452.225C529.9 454.575 431.45 455.35 329.9 455.35C215.05 455.35 94.7502 453 86.1502 450.65C51.7752 442.05 70.5252 379.55 115.85 349.875C151 327.225 222.875 292.85 242.425 288.925C269 283.45 272.125 267.05 242.425 213.925C235.4 202.2 227.575 166.275 226.8 128.775C226.025 67.8249 237.75 26.4249 290.875 6.1249C301.825 2.2249 312.75 0.649902 322.9 0.649902C358.05 0.649902 390.875 20.1749 404.15 49.0999C423.675 87.3749 415.875 189.725 395.55 226.45C372.1 267.85 374.45 281.15 400.25 288.175C417.45 292.875 470.575 317.875 523.7 346.775L523.65 346.75ZM98.6502 323.325C86.1502 331.925 74.4252 342.85 65.0502 353.8C35.3502 353.8 12.7002 353.025 10.3502 352.225C-9.17484 347.525 1.75017 311.6 27.5502 295.975C47.0752 283.475 86.9252 263.95 97.8752 261.6C111.95 258.475 115.075 249.875 97.8752 220.2C93.9752 213.95 89.2752 193.625 89.2752 172.55C88.5002 138.175 95.5252 114.725 125.225 104.575C150.225 95.1999 178.35 106.925 188.5 128.025C198.65 149.9 193.2 206.15 182.25 226.475C169.75 250.7 172.1 256.95 186.15 260.85C189.275 261.625 195.525 264.75 204.125 268.675C169.75 282.75 122.875 308.525 98.6502 323.375V323.325ZM612.725 293.625C631.475 303.775 641.625 320.975 640.075 338.95C639.3 349.9 639.3 350.675 625.225 352.225C621.325 353 603.35 353.8 579.9 353.8C569.75 340.525 555.675 328.025 538.5 319.425C506.475 300.675 467.4 280.35 438.5 267.85C446.325 264.725 453.35 262.375 456.475 261.6C471.325 258.475 473.675 249.875 456.475 220.2C453.35 213.95 447.875 193.625 447.875 172.55C447.1 138.175 453.35 114.725 483.025 104.575C508.8 95.1999 536.925 106.925 546.3 128.025C556.45 149.9 552.55 206.15 541.6 226.475C529.1 250.7 530.65 256.95 543.95 260.85C553.325 263.975 583.025 278.05 612.7 293.675L612.725 293.625Z" fill="#D4D4D4"/>
</svg>
