<svg width="337" height="355" viewBox="0 0 337 355" fill="none" xmlns="http://www.w3.org/2000/svg">
<path fill-rule="evenodd" clip-rule="evenodd" d="M180.501 0.880859C196.39 0.880859 210.043 11.8217 213.032 26.9527L214.361 33.681C219.586 60.1275 247.801 75.9207 274.037 67.0849L280.715 64.8359C295.725 59.7808 312.324 65.7725 320.268 79.1141L332.269 99.2656C340.215 112.608 337.266 129.54 325.246 139.615L319.9 144.096C298.887 161.707 298.887 193.293 319.9 210.903L325.246 215.383C337.266 225.459 340.215 242.392 332.269 255.734L320.27 275.885C312.324 289.227 295.725 295.218 280.713 290.163L274.038 287.913C247.801 279.076 219.586 294.87 214.361 321.318L213.032 328.046C210.043 343.177 196.39 354.119 180.501 354.119H156.499C140.609 354.119 126.957 343.177 123.968 328.048L122.637 321.315C117.412 294.87 89.1965 279.076 62.9601 287.913L56.2864 290.161C41.2756 295.218 24.6764 289.225 16.7308 275.883L4.73067 255.734C-3.21459 242.392 -0.267471 225.459 11.7535 215.383L17.1004 210.903C38.1115 193.292 38.1115 161.707 17.1004 144.097L11.7535 139.615C-0.267471 129.54 -3.21457 112.608 4.73067 99.2662L16.7313 79.1145C24.6765 65.7727 41.2753 59.781 56.2859 64.8364L62.9615 67.0847C89.1974 75.9207 117.412 60.1285 122.637 33.6827L123.967 26.9514C126.957 11.8211 140.608 0.880859 156.499 0.880859H180.501ZM168.5 227.962C196.369 227.962 218.962 205.369 218.962 177.5C218.962 149.629 196.369 127.037 168.5 127.037C140.629 127.037 118.037 149.629 118.037 177.5C118.037 205.369 140.629 227.962 168.5 227.962Z" fill="white"/>
</svg>
