<svg width="666" height="661" viewBox="0 0 666 661" fill="none" xmlns="http://www.w3.org/2000/svg">
<path d="M298.667 628.88C298.667 648.593 281.58 664.137 262.3 660.033C122.229 630.237 14.7011 512.457 0.30812 367.287C-1.50821 348.967 13.5908 334 32.0001 334H132C150.409 334 165.333 348.923 165.333 367.333C165.333 422.563 210.105 467.333 265.333 467.333C283.743 467.333 298.667 482.257 298.667 500.667V628.88Z" fill="#D4D4D4"/>
<path d="M498.667 564.947C498.667 590.62 526.267 606.114 545.943 589.627C572.313 567.534 595.213 541.437 613.707 512.27C626.577 491.977 610.69 467.333 586.656 467.333H532C513.59 467.333 498.667 482.257 498.667 500.667V564.947Z" fill="#D4D4D4"/>
<path d="M332 0.666504C417.067 0.666504 494.69 32.5308 553.583 84.9745C574.107 103.249 559.443 134 531.963 134H527.137C474.593 134 432 176.594 432 229.137C432 239.92 425.907 249.778 416.263 254.601L413.573 255.945C404.19 260.637 393.143 260.637 383.76 255.945L381.07 254.601C371.427 249.778 365.333 239.92 365.333 229.137C365.333 176.594 322.74 134 270.197 134H265.333C246.924 134 232 119.076 232 100.667V40.3958C232 25.8342 241.418 12.7892 255.595 9.46417C280.13 3.71017 305.71 0.666504 332 0.666504Z" fill="#D4D4D4"/>
<path d="M46.1193 267.332C25.0453 267.332 9.19193 247.944 15.8913 227.963C35.9103 168.257 72.3709 116.093 119.895 76.8477C138.873 61.1757 165.339 76.052 165.339 100.665C165.339 155.893 210.11 200.665 265.34 200.665H270.203C285.927 200.665 298.673 213.411 298.673 229.135C298.673 265.17 319.03 298.113 351.263 314.227L353.95 315.573C382.103 329.65 415.24 329.65 443.393 315.573L446.083 314.227C478.313 298.113 498.673 265.17 498.673 229.135C498.673 213.411 511.42 200.665 527.143 200.665H615.79C629.04 200.665 641.177 208.461 645.67 220.925C658.4 256.231 665.34 294.303 665.34 333.997C665.34 347.457 664.54 360.73 662.99 373.77C661.12 389.513 647.277 400.663 631.423 400.663H532.007C476.777 400.663 432.007 445.437 432.007 500.663V627.603C432.007 642.163 422.587 655.21 408.41 658.533C406.18 659.057 403.94 659.557 401.69 660.037C382.41 664.137 365.34 648.59 365.34 628.88V500.663C365.34 445.437 320.567 400.663 265.34 400.663C246.929 400.663 232.005 385.74 232.005 367.33C232.005 312.103 187.234 267.332 132.005 267.332H46.1193Z" fill="#D4D4D4"/>
</svg>
