<svg width="315" height="315" viewBox="0 0 315 315" fill="none" xmlns="http://www.w3.org/2000/svg">
<g clip-path="url(#clip0_226_6)">
<path d="M157.5 13.125C128.945 13.125 101.032 21.5925 77.2896 37.4566C53.5473 53.3207 35.0424 75.869 24.115 102.25C13.1876 128.631 10.3284 157.66 15.8992 185.666C21.4699 213.672 35.2203 239.397 55.4115 259.589C75.6027 279.78 101.328 293.53 129.334 299.101C157.34 304.672 186.369 301.813 212.75 290.885C239.131 279.958 261.679 261.453 277.543 237.71C293.408 213.968 301.875 186.055 301.875 157.5C301.962 138.516 298.287 119.703 291.062 102.147C283.837 84.5919 273.206 68.6416 259.782 55.2178C246.359 41.794 230.408 31.1627 212.853 23.938C195.297 16.7132 176.484 13.0382 157.5 13.125ZM170.625 238.875C169.969 239.531 169.969 240.188 169.313 241.5C168.656 242.813 168.656 242.813 168.656 243.469L166.688 245.438L164.719 247.406H162.75L160.125 248.719H154.875L152.25 247.406H150.281L148.313 245.438L146.344 243.469C146.344 242.813 145.688 242.156 145.688 241.5C145.688 240.844 145.031 239.531 144.375 238.875V233.625C145.031 232.969 145.031 232.313 145.688 231C146.344 229.688 146.344 229.688 146.344 229.031L148.313 227.063C149.764 225.429 151.619 224.205 153.692 223.514C155.765 222.823 157.984 222.689 160.125 223.125H162.75L164.719 224.438L166.688 226.406L168.656 228.375C168.656 229.031 169.313 229.688 169.313 230.344C169.313 231 169.969 232.313 170.625 232.969V238.219V238.875ZM182.438 177.188C177.825 179.676 174.142 183.589 171.938 188.344C171.112 190.825 169.527 192.983 167.407 194.514C165.287 196.045 162.74 196.871 160.125 196.875H154.875C151.659 195.564 149.094 193.033 147.741 189.835C146.388 186.637 146.358 183.033 147.656 179.813C152.083 168.428 160.802 159.238 171.938 154.219C178.52 151.554 184.034 146.785 187.621 140.657C191.208 134.528 192.666 127.385 191.767 120.341C190.868 113.297 187.662 106.749 182.65 101.718C177.639 96.6876 171.103 93.4572 164.063 92.5313C159.265 91.6297 154.332 91.7481 149.583 92.8788C144.834 94.0094 140.377 96.127 136.5 99.0938C132.934 102.225 130.046 106.052 128.015 110.341C125.984 114.63 124.851 119.289 124.688 124.031C124.688 127.512 123.305 130.851 120.843 133.312C118.382 135.773 115.044 137.156 111.563 137.156C108.082 137.156 104.743 135.773 102.282 133.312C99.8204 130.851 98.4376 127.512 98.4376 124.031C98.5153 115.519 100.432 107.124 104.057 99.4219C107.681 91.7196 112.928 84.8918 119.438 79.4063C126.197 73.5729 134.23 69.4061 142.892 67.2406C151.554 65.0751 160.603 64.9713 169.313 66.9375C180.642 68.9746 191.091 74.3887 199.289 82.4694C207.486 90.5501 213.05 100.92 215.25 112.219C217.942 125.163 216.162 138.638 210.201 150.439C204.241 162.241 194.453 171.671 182.438 177.188Z" fill="white"/>
</g>
<defs>
<clipPath id="clip0_226_6">
<rect width="315" height="315" fill="white"/>
</clipPath>
</defs>
</svg>
