<svg width="333" height="267" viewBox="0 0 333 267" fill="none" xmlns="http://www.w3.org/2000/svg">
<path fill-rule="evenodd" clip-rule="evenodd" d="M49.95 267C36.7024 267 23.9975 261.726 14.63 252.337C5.26258 242.949 0 230.215 0 216.938V50.0625C0 36.7851 5.26258 24.0515 14.63 14.663C23.9975 5.27443 36.7024 0 49.95 0H283.05C296.298 0 309.003 5.27443 318.37 14.663C327.737 24.0515 333 36.7851 333 50.0625V216.938C333 230.215 327.737 242.949 318.37 252.337C309.003 261.726 296.298 267 283.05 267H49.95ZM93.6562 70.4213C91.9602 68.9697 89.9904 67.8745 87.8639 67.2006C85.7374 66.5267 83.4975 66.2879 81.2772 66.4983C79.0568 66.7086 76.9012 67.364 74.9384 68.4254C72.9756 69.4867 71.2455 70.9325 69.8509 72.6769C68.4563 74.4213 67.4256 76.4287 66.82 78.58C66.2143 80.7313 66.0461 82.9826 66.3252 85.2003C66.6044 87.418 67.3252 89.5569 68.445 91.4901C69.5647 93.4232 71.0606 95.1112 72.8438 96.4537L135.281 146.533C144.14 153.642 155.151 157.515 166.5 157.515C177.849 157.515 188.859 153.642 197.719 146.533L260.156 96.4704C261.864 95.1008 263.286 93.4075 264.34 91.4871C265.395 89.5667 266.062 87.457 266.303 85.2783C266.544 83.0996 266.355 80.8946 265.746 78.7892C265.137 76.6838 264.12 74.7193 262.754 73.0078C261.387 71.2963 259.698 69.8713 257.781 68.8142C255.865 67.7571 253.76 67.0887 251.587 66.8469C249.413 66.6052 247.213 66.795 245.112 67.4054C243.012 68.0158 241.051 69.0349 239.344 70.4046L176.906 120.467C173.953 122.837 170.283 124.128 166.5 124.128C162.717 124.128 159.047 122.837 156.094 120.467L93.6562 70.4046V70.4213Z" fill="#E5E5E5"/>
</svg>
