<svg width="32" height="32" viewBox="0 0 32 32" fill="none" xmlns="http://www.w3.org/2000/svg">
<g clip-path="url(#clip0_182_73)">
<path d="M16 0C20.2435 0 24.3131 1.68571 27.3137 4.68629C30.3143 7.68687 32 11.7565 32 16C31.9994 16.5464 31.9698 17.0923 31.9111 17.6356C31.4951 21.5655 29.6395 25.2024 26.7017 27.8456C23.7639 30.4888 19.9519 31.9513 16 31.9513C12.0481 31.9513 8.23608 30.4888 5.2983 27.8456C2.36052 25.2024 0.504871 21.5655 0.0888882 17.6356C0.0302353 17.0923 0.000566483 16.5464 0 16C0 11.7565 1.68571 7.68687 4.68629 4.68629C7.68687 1.68571 11.7565 0 16 0ZM6.36444 23.8578C6.38222 23.8578 6.47111 24 6.48889 24C7.65271 25.3913 9.1076 26.5103 10.751 27.2782C12.3943 28.046 14.1861 28.4439 16 28.4439C17.8139 28.4439 19.6057 28.046 21.249 27.2782C22.8924 26.5103 24.3473 25.3913 25.5111 24C25.5289 24 25.6178 23.8578 25.6356 23.8578C25.7332 23.7161 25.7887 23.5497 25.7956 23.3778C25.7922 23.1913 25.7328 23.0101 25.625 22.8579C25.5171 22.7056 25.366 22.5895 25.1911 22.5244C23.8756 22.08 22.6133 21.6533 22.2578 21.5644C22.266 21.5244 22.2656 21.4829 22.2563 21.4431C22.2471 21.4032 22.2294 21.3657 22.2044 21.3333C22.1578 21.1612 22.0595 21.0076 21.9228 20.8932C21.7861 20.7787 21.6176 20.709 21.44 20.6933L19.1822 20.5156C19.2013 20.0297 19.316 19.5525 19.52 19.1111V19.0933C19.7105 18.5912 19.9806 18.1229 20.32 17.7067C21.2497 16.4939 21.7444 15.0036 21.7244 13.4756C21.8228 11.9042 21.3004 10.357 20.2698 9.16684C19.2392 7.97663 17.7826 7.23846 16.2133 7.11111H15.7867C14.2174 7.23846 12.7608 7.97663 11.7302 9.16684C10.6996 10.357 10.1772 11.9042 10.2756 13.4756C10.2556 15.0036 10.7503 16.4939 11.68 17.7067C12.0194 18.1229 12.2895 18.5912 12.48 19.0933V19.1111C12.684 19.5525 12.7987 20.0297 12.8178 20.5156L10.56 20.6933C10.3824 20.709 10.2139 20.7787 10.0772 20.8932C9.94046 21.0076 9.84217 21.1612 9.79556 21.3333C9.77056 21.3657 9.75286 21.4032 9.74365 21.4431C9.73445 21.4829 9.73396 21.5244 9.74222 21.5644C9.38667 21.6533 8.12444 22.08 6.80889 22.5244C6.67854 22.5663 6.55989 22.6382 6.46255 22.7345C6.36521 22.8307 6.29192 22.9486 6.24863 23.0784C6.20534 23.2083 6.19327 23.3465 6.21339 23.4819C6.23351 23.6174 6.28526 23.7461 6.36444 23.8578Z" fill="#C0C0C0"/>
</g>
<defs>
<clipPath id="clip0_182_73">
<rect width="32" height="32" fill="white" transform="matrix(-1 0 0 1 32 0)"/>
</clipPath>
</defs>
</svg>
