<svg width="700" height="667" viewBox="0 0 700 667" fill="none" xmlns="http://www.w3.org/2000/svg">
<path fill-rule="evenodd" clip-rule="evenodd" d="M58.3333 50.3335C56.1232 50.3335 54.0036 51.2115 52.4408 52.7743C50.878 54.3371 50 56.4567 50 58.6668V475.333C50 479.933 53.7333 483.667 58.3333 483.667H141.667C148.297 483.667 154.656 486.301 159.344 490.989C164.033 495.678 166.667 502.036 166.667 508.667V615L280.9 500.767C291.834 489.825 306.665 483.675 322.133 483.667H641.667C643.877 483.667 645.996 482.789 647.559 481.226C649.122 479.663 650 477.544 650 475.333V58.6668C650 56.4567 649.122 54.3371 647.559 52.7743C645.996 51.2115 643.877 50.3335 641.667 50.3335H58.3333ZM0 58.6668C0 26.4668 26.1333 0.333496 58.3333 0.333496H641.667C673.867 0.333496 700 26.4668 700 58.6668V475.333C700 490.804 693.854 505.642 682.915 516.581C671.975 527.521 657.138 533.667 641.667 533.667H322.133C321.038 533.665 319.953 533.879 318.941 534.296C317.929 534.714 317.009 535.327 316.233 536.1L199.567 652.767C192.775 659.556 184.122 664.178 174.704 666.051C165.285 667.923 155.522 666.962 146.65 663.287C137.778 659.613 130.194 653.39 124.857 645.407C119.52 637.423 116.67 628.037 116.667 618.433V533.667H58.3333C42.8624 533.667 28.0251 527.521 17.0854 516.581C6.14582 505.642 0 490.804 0 475.333V58.6668ZM350 117C356.63 117 362.989 119.634 367.678 124.322C372.366 129.011 375 135.37 375 142V275.333C375 281.964 372.366 288.323 367.678 293.011C362.989 297.7 356.63 300.333 350 300.333C343.37 300.333 337.011 297.7 332.322 293.011C327.634 288.323 325 281.964 325 275.333V142C325 135.37 327.634 129.011 332.322 124.322C337.011 119.634 343.37 117 350 117ZM350 417C358.841 417 367.319 413.488 373.57 407.237C379.821 400.986 383.333 392.507 383.333 383.667C383.333 374.826 379.821 366.348 373.57 360.097C367.319 353.845 358.841 350.333 350 350.333C341.159 350.333 332.681 353.845 326.43 360.097C320.179 366.348 316.667 374.826 316.667 383.667C316.667 392.507 320.179 400.986 326.43 407.237C332.681 413.488 341.159 417 350 417Z" fill="white"/>
</svg>
