<svg width="622" height="599" viewBox="0 0 622 599" fill="none" xmlns="http://www.w3.org/2000/svg">
<path d="M622 299C622.027 311.622 618.471 323.993 611.744 334.674C605.017 345.354 595.396 353.906 584 359.333L95.6666 590.667C86.7289 595.54 76.8278 598.385 66.6666 599C55.5471 598.977 44.6101 596.173 34.8511 590.843C25.0922 585.513 16.8214 577.827 10.7917 568.484C4.76197 559.142 1.16493 548.439 0.328024 537.351C-0.508879 526.263 1.44094 515.142 5.99996 505L82 332.333H266.667C275.507 332.333 283.986 328.822 290.237 322.57C296.488 316.319 300 307.841 300 299C300 290.16 296.488 281.681 290.237 275.43C283.986 269.179 275.507 265.667 266.667 265.667H82L5.99996 94.6667C0.493025 82.2404 -1.08411 68.4276 1.47994 55.0797C4.04398 41.7318 10.6267 29.4865 20.3458 19.9849C30.065 10.4834 42.4562 4.17956 55.8587 1.91835C69.2613 -0.342862 83.0348 1.54656 95.3333 7.33341L583.667 238.667C595.125 244.047 604.815 252.577 611.603 263.261C618.391 273.946 621.997 286.342 622 299Z" fill="white"/>
</svg>
