<svg width="800" height="800" viewBox="0 0 800 800" fill="none" xmlns="http://www.w3.org/2000/svg">
<path d="M433.333 500C424.493 500 416.014 503.512 409.763 509.763C403.512 516.014 400 524.493 400 533.333V666.666H133.333V133.333H400V266.666C400 275.507 403.512 283.986 409.763 290.237C416.014 296.488 424.493 300 433.333 300C442.174 300 450.652 296.488 456.904 290.237C463.155 283.986 466.667 275.507 466.667 266.666V133.333C466.667 115.652 459.643 98.6951 447.141 86.1927C434.638 73.6903 417.681 66.6665 400 66.6665H133.333C115.652 66.6665 98.6954 73.6903 86.193 86.1927C73.6905 98.6951 66.6667 115.652 66.6667 133.333V666.666C66.6667 684.348 73.6905 701.304 86.193 713.807C98.6954 726.309 115.652 733.333 133.333 733.333H400C417.681 733.333 434.638 726.309 447.141 713.807C459.643 701.304 466.667 684.348 466.667 666.666V533.333C466.667 524.493 463.155 516.014 456.904 509.763C450.652 503.512 442.174 500 433.333 500Z" fill="white"/>
<path d="M730.667 387.333C728.979 383.294 726.611 379.573 723.667 376.333L590.333 243C587.225 239.892 583.536 237.427 579.475 235.745C575.414 234.063 571.062 233.197 566.667 233.197C557.79 233.197 549.277 236.723 543 243C536.723 249.277 533.197 257.79 533.197 266.667C533.197 275.543 536.723 284.056 543 290.333L619.667 366.666H266.667C257.826 366.666 249.348 370.178 243.096 376.43C236.845 382.681 233.333 391.159 233.333 400C233.333 408.84 236.845 417.319 243.096 423.57C249.348 429.821 257.826 433.333 266.667 433.333H619.667L543 509.667C539.876 512.765 537.396 516.452 535.704 520.514C534.011 524.576 533.14 528.933 533.14 533.333C533.14 537.734 534.011 542.09 535.704 546.152C537.396 550.214 539.876 553.901 543 557C546.099 560.124 549.785 562.604 553.847 564.296C557.909 565.989 562.266 566.86 566.667 566.86C571.067 566.86 575.424 565.989 579.486 564.296C583.548 562.604 587.234 560.124 590.333 557L723.667 423.666C726.611 420.426 728.979 416.706 730.667 412.666C732.43 408.676 733.341 404.362 733.341 400C733.341 395.637 732.43 391.323 730.667 387.333Z" fill="white"/>
</svg>
