<svg width="800" height="800" viewBox="0 0 800 800" fill="none" xmlns="http://www.w3.org/2000/svg">
<path d="M400 742.857C589.355 742.857 742.857 589.355 742.857 400C742.857 210.645 589.355 57.1428 400 57.1428C210.645 57.1428 57.1428 210.645 57.1428 400C57.1428 589.355 210.645 742.857 400 742.857Z" stroke="white" stroke-opacity="0.1" stroke-width="114.286"/>
<path d="M400 0C506.087 0 607.828 42.1427 682.843 117.157C757.857 192.172 800 293.913 800 400H685.714C685.714 362.479 678.324 325.326 663.966 290.662C649.607 255.997 628.562 224.501 602.031 197.969C575.499 171.438 544.003 150.393 509.338 136.034C474.674 121.676 437.521 114.286 400 114.286V0Z" fill="white" fill-opacity="0.8"/>
</svg>
