<svg width="800" height="800" viewBox="0 0 800 800" fill="none" xmlns="http://www.w3.org/2000/svg">
<path d="M720 328C714.384 319.172 709.693 309.789 706 300C702.779 289.941 700.765 279.535 700 269C699.562 243.508 692.186 218.617 678.667 197C662.134 177.399 640.59 162.652 616.333 154.333C606.434 150.513 596.943 145.711 588 140C580.242 133.323 573.102 125.96 566.667 118C551.353 97.2089 530.588 81.058 506.667 71.3334C482.446 65.6103 457.141 66.4154 433.333 73.6668C412.068 78.6644 389.933 78.6644 368.667 73.6668C344.443 66.1736 318.644 65.3674 294 71.3334C269.836 80.9519 248.828 97.1114 233.333 118C226.687 125.989 219.323 133.353 211.333 140C202.391 145.711 192.899 150.513 183 154.333C158.623 162.598 136.958 177.349 120.333 197C107.165 218.718 100.138 243.602 100 269C99.2351 279.535 97.221 289.941 94.0002 300C90.2661 309.56 85.5757 318.717 80.0002 327.333C64.9711 348.758 56.0947 373.889 54.3335 400C56.2139 425.881 65.0849 450.766 80.0002 472C85.704 480.542 90.4018 489.713 94.0002 499.333C96.9004 509.657 98.5785 520.285 99.0002 531C99.4049 556.498 106.783 581.398 120.333 603C136.867 622.602 158.41 637.348 182.667 645.667C192.566 649.487 202.058 654.289 211 660C218.989 666.647 226.353 674.011 233 682C248.211 702.891 269.008 719.066 293 728.667C302.401 731.528 312.173 732.988 322 733C337.054 732.52 352.02 730.51 366.667 727C387.896 721.694 410.104 721.694 431.333 727C455.616 734.207 481.367 734.897 506 729C529.992 719.399 550.789 703.224 566 682.333C572.647 674.344 580.011 666.98 588 660.333C596.943 654.622 606.434 649.82 616.333 646C640.59 637.681 662.134 622.935 678.667 603.333C692.218 581.731 699.595 556.831 700 531.333C700.422 520.619 702.1 509.99 705 499.667C708.734 490.107 713.425 480.95 719 472.333C734.328 451.11 743.551 426.094 745.667 400C743.786 374.119 734.915 349.234 720 328ZM557 357L390.333 523.667C387.235 526.791 383.548 529.271 379.486 530.963C375.424 532.655 371.067 533.527 366.667 533.527C362.266 533.527 357.91 532.655 353.848 530.963C349.786 529.271 346.099 526.791 343 523.667L243 423.667C239.892 420.559 237.427 416.869 235.745 412.808C234.063 408.748 233.197 404.395 233.197 400C233.197 391.123 236.723 382.61 243 376.333C249.277 370.057 257.79 366.53 266.667 366.53C275.544 366.53 284.057 370.057 290.333 376.333L366.667 453L509.667 309.667C515.944 303.39 524.457 299.864 533.333 299.864C542.21 299.864 550.723 303.39 557 309.667C563.277 315.944 566.803 324.457 566.803 333.333C566.803 342.21 563.277 350.723 557 357Z" fill="#21AFFF"/>
</svg>
